<?xml version="1.0" standalone="no"?>
<!DOCTYPE svg PUBLIC "-//W3C//DTD SVG 20010904//EN"
 "http://www.w3.org/TR/2001/REC-SVG-20010904/DTD/svg10.dtd">
<svg version="1.0" xmlns="http://www.w3.org/2000/svg"
 width="512.000000pt" height="512.000000pt" viewBox="0 0 512.000000 512.000000"
 preserveAspectRatio="xMidYMid meet">
<metadata>
Created by potrace 1.11, written by Peter Selinger 2001-2013
</metadata>
<g transform="translate(0.000000,512.000000) scale(0.100000,-0.100000)"
fill="#000000" stroke="none">
<path d="M735 4888 c6 -16 -20 -19 -42 -5 -6 4 -14 3 -18 -2 -3 -6 -12 -8 -20
-4 -12 4 -14 -3 -12 -36 2 -23 -1 -41 -6 -41 -5 0 -5 -6 2 -13 8 -10 7 -17 -1
-25 -7 -7 -8 -12 -2 -12 5 0 9 -36 9 -80 0 -44 -4 -80 -9 -80 -5 0 -4 -6 3
-13 8 -10 7 -17 -1 -25 -9 -9 -9 -12 1 -12 11 0 11 -3 1 -15 -10 -12 -10 -15
0 -15 10 0 10 -3 0 -15 -7 -8 -9 -15 -4 -15 11 0 11 -71 0 -88 -4 -7 -2 -12 5
-12 8 0 8 -4 -1 -15 -7 -8 -9 -15 -4 -15 11 0 11 -121 0 -138 -4 -7 -2 -12 5
-12 8 0 8 -4 -1 -15 -10 -12 -10 -15 0 -15 10 0 10 -3 0 -15 -7 -8 -9 -15 -4
-15 5 0 9 -16 9 -35 0 -19 -4 -35 -9 -35 -5 0 -3 -7 4 -15 10 -12 10 -15 0
-15 -10 0 -10 -3 0 -15 10 -12 10 -15 0 -15 -10 0 -10 -3 0 -15 10 -12 10 -15
0 -15 -10 0 -10 -3 0 -15 10 -12 10 -15 0 -15 -10 0 -10 -3 0 -15 10 -12 10
-15 0 -15 -8 0 -9 -4 -3 -12 10 -15 10 -129 -1 -146 -4 -7 -2 -12 5 -12 8 0 9
-4 0 -13 -8 -10 -7 -17 1 -25 7 -7 8 -12 2 -12 -6 0 -11 -7 -11 -15 0 -8 5
-15 10 -15 5 0 5 -6 -2 -13 -8 -10 -7 -17 1 -25 9 -9 9 -12 0 -12 -9 0 -10 -6
-5 -17 10 -22 9 -145 -1 -161 -4 -7 -2 -12 5 -12 8 0 9 -4 0 -13 -8 -10 -7
-17 1 -25 7 -7 8 -12 2 -12 -6 0 -11 -7 -11 -15 0 -8 5 -15 10 -15 5 0 5 -6
-2 -13 -8 -10 -7 -17 1 -25 9 -9 9 -12 -1 -12 -7 0 -9 -5 -5 -11 10 -17 11
-60 2 -86 -4 -13 -3 -25 3 -29 6 -4 6 -11 -2 -20 -6 -8 -8 -14 -3 -14 5 0 9
-43 9 -95 0 -52 -4 -95 -9 -95 -5 0 -3 -7 4 -15 10 -12 10 -15 0 -15 -9 0 -10
-3 -1 -13 8 -10 7 -17 -1 -25 -9 -9 -9 -12 1 -12 11 0 11 -3 1 -15 -10 -12
-10 -15 0 -15 10 0 10 -3 0 -15 -7 -8 -8 -15 -3 -15 5 0 9 -9 9 -20 0 -11 -4
-20 -9 -20 -5 0 -4 -7 3 -15 10 -12 10 -15 0 -15 -10 0 -10 -3 0 -15 10 -12
10 -15 0 -15 -9 0 -10 -3 -1 -13 8 -10 7 -17 -1 -25 -7 -7 -8 -12 -3 -12 6 0
10 -42 10 -95 0 -52 -4 -95 -9 -95 -5 0 -3 -7 4 -15 10 -12 10 -15 0 -15 -9 0
-10 -3 -1 -13 8 -10 7 -17 -1 -25 -9 -9 -9 -12 1 -12 11 0 11 -3 1 -15 -10
-12 -10 -15 0 -15 10 0 10 -3 0 -15 -7 -8 -8 -15 -3 -15 5 0 9 -9 9 -20 0 -11
-4 -20 -9 -20 -5 0 -4 -7 3 -15 10 -12 10 -15 0 -15 -10 0 -10 -3 0 -15 10
-12 10 -15 0 -15 -9 0 -10 -3 -1 -13 8 -10 7 -17 -1 -25 -7 -7 -8 -12 -3 -12
6 0 10 -47 10 -110 0 -60 -4 -110 -8 -110 -5 0 -5 -6 0 -12 10 -17 10 -78 0
-100 -5 -12 -3 -18 5 -18 9 0 9 -3 0 -12 -8 -8 -9 -15 -1 -25 7 -7 7 -13 2
-13 -5 0 -10 -7 -10 -15 0 -8 5 -15 10 -15 5 0 5 -6 -2 -13 -8 -10 -7 -17 1
-25 9 -9 9 -12 0 -12 -9 0 -10 -6 -5 -17 10 -22 9 -145 -1 -161 -4 -7 -2 -12
5 -12 8 0 9 -4 0 -13 -8 -10 -7 -17 1 -25 7 -7 8 -12 2 -12 -6 0 -11 -7 -11
-15 0 -8 5 -15 11 -15 6 0 5 -5 -2 -12 -8 -8 -9 -15 -1 -25 9 -9 8 -13 0 -13
-7 0 -9 -5 -5 -11 10 -17 11 -60 2 -86 -4 -13 -3 -25 3 -29 7 -4 6 -10 -1 -19
-8 -10 -8 -15 0 -20 8 -5 8 -11 -1 -21 -9 -11 -9 -14 1 -14 10 0 10 -3 0 -15
-7 -8 -8 -15 -3 -15 5 0 9 -9 9 -20 0 -11 -5 -20 -10 -20 -6 0 -5 -5 1 -11 6
-6 9 -17 6 -24 -5 -15 30 -38 41 -27 4 3 11 0 16 -8 8 -12 10 -12 10 -1 0 11
3 11 17 0 9 -8 14 -9 10 -3 -4 7 2 12 18 12 14 0 22 -5 19 -10 -4 -6 3 -5 14
1 27 14 35 14 26 -1 -5 -7 -3 -8 7 -2 20 12 79 12 79 0 0 -7 3 -8 8 -1 9 13
103 15 95 2 -4 -6 -1 -7 8 -1 20 12 100 13 92 1 -4 -6 -1 -7 8 -1 21 13 39 14
39 1 0 -8 3 -9 8 -1 9 13 80 15 88 3 3 -5 11 -6 17 -2 20 12 37 12 37 0 0 -8
3 -8 8 -2 10 14 62 15 62 1 0 -6 4 -5 9 2 11 17 21 17 32 0 5 -7 9 -8 9 -2 0
6 16 11 35 11 22 0 32 -4 28 -11 -4 -6 1 -5 10 3 13 10 20 11 30 2 10 -8 17
-7 26 2 9 9 14 9 21 -3 5 -8 10 -10 10 -5 0 6 9 11 20 12 13 1 18 -2 13 -10
-4 -8 -1 -8 9 1 12 9 18 10 23 2 4 -7 11 -8 18 -2 16 13 50 11 59 -2 5 -7 8
-6 8 3 0 12 3 11 18 -1 9 -9 25 -14 35 -13 9 2 17 -1 17 -6 0 -5 53 -61 118
-126 64 -64 116 -120 115 -125 -2 -4 2 -7 9 -5 6 1 17 -9 25 -23 7 -14 13 -21
13 -17 0 4 15 -7 34 -25 18 -18 31 -36 29 -40 -2 -5 1 -8 7 -8 15 0 121 -106
113 -114 -3 -3 0 -6 8 -6 8 0 27 -16 44 -35 16 -19 37 -35 45 -36 10 0 11 -2
2 -6 -6 -2 -12 -9 -12 -14 0 -6 4 -8 8 -5 14 8 53 -24 46 -37 -4 -7 -4 -9 1
-5 11 10 116 -93 108 -105 -3 -6 -1 -7 5 -3 6 3 17 -2 24 -11 14 -19 44 -31
33 -13 -6 9 8 15 29 11 5 -1 6 5 3 13 -5 13 18 31 35 28 5 -1 7 1 7 6 -3 20 3
31 20 37 11 3 23 15 26 26 4 10 11 17 16 14 5 -4 9 -3 9 2 0 12 109 123 121
123 6 0 8 4 4 9 -3 5 4 12 15 16 11 3 25 15 31 26 5 11 15 16 21 13 6 -4 8 -3
4 4 -3 6 3 17 14 25 11 7 17 17 12 22 -4 4 1 5 11 2 10 -4 16 -3 13 1 -7 11
129 144 138 135 4 -5 6 -1 4 7 -2 8 3 14 10 12 8 -1 11 1 8 6 -7 12 98 114
108 105 4 -5 7 -3 6 2 -5 22 1 29 11 15 9 -13 10 -13 6 1 -6 18 40 69 61 69 7
0 11 3 10 8 -3 17 15 40 28 35 8 -3 14 0 14 7 0 10 3 10 14 1 10 -8 16 -9 21
-1 3 5 11 10 16 10 6 0 8 -4 5 -9 -7 -11 13 -9 32 2 7 5 12 3 12 -5 0 -9 3 -9
8 -2 4 6 21 10 37 10 17 0 33 -4 37 -10 6 -8 8 -8 8 0 0 13 78 15 86 2 3 -5
12 -3 21 3 12 10 16 10 24 -2 5 -8 9 -9 9 -4 0 6 9 11 20 12 13 1 18 -2 14 -9
-5 -7 -2 -8 6 -3 20 13 70 14 70 1 0 -7 3 -8 8 -1 9 14 74 16 65 2 -4 -6 -1
-7 8 -1 20 12 100 13 92 1 -4 -6 -1 -7 8 -1 21 13 39 14 39 1 0 -9 2 -9 8 -1
9 13 72 15 89 2 7 -5 14 -5 18 2 3 5 11 10 16 10 6 0 7 -6 3 -12 -5 -8 -1 -8
10 1 15 13 19 13 27 0 7 -11 9 -11 9 0 0 11 3 11 17 0 9 -8 14 -9 11 -4 -4 7
25 11 88 11 59 0 94 -4 94 -11 0 -6 3 -6 8 1 4 7 18 11 32 10 21 -1 24 3 25
34 1 20 5 42 10 49 5 8 4 12 -1 8 -5 -3 -9 41 -9 103 0 62 4 106 9 102 5 -3 6
0 2 7 -12 19 -14 61 -3 54 6 -4 7 -1 2 8 -12 18 -12 119 -1 112 5 -4 6 0 1 8
-12 18 -13 79 -2 79 4 0 5 6 1 12 -11 18 -11 367 0 361 5 -4 6 -1 2 6 -12 19
-14 61 -3 54 6 -4 7 -1 2 8 -12 18 -12 119 -1 112 5 -4 6 0 1 8 -12 18 -12
119 -1 112 5 -4 6 0 1 8 -12 18 -13 339 -1 332 5 -4 6 -1 2 6 -12 19 -14 61
-3 54 6 -4 7 -1 2 8 -12 18 -12 119 -1 112 5 -4 6 0 1 8 -12 18 -13 79 -2 79
4 0 5 6 1 12 -11 18 -11 367 0 361 5 -4 6 -1 2 6 -12 19 -14 61 -3 54 6 -4 7
-1 2 8 -12 18 -12 119 -1 112 5 -4 6 0 1 8 -12 18 -12 119 -1 112 5 -4 6 0 1
8 -12 18 -13 339 -1 332 5 -4 6 -1 2 6 -12 19 -14 61 -3 54 6 -4 7 -1 2 8 -12
18 -12 119 -1 112 5 -4 6 0 1 7 -11 18 -13 200 -2 200 5 0 5 6 1 12 -11 18
-11 247 0 241 5 -4 6 -1 2 6 -12 19 -14 61 -3 54 6 -4 7 -1 1 8 -10 17 -12
148 -2 171 5 9 4 19 0 22 -5 3 -8 21 -7 40 1 20 -2 33 -6 30 -5 -3 -9 1 -9 8
0 8 -3 9 -8 3 -12 -16 -44 -15 -38 1 5 13 3 13 -16 0 -15 -11 -26 -12 -40 -5
-12 7 -18 6 -18 -1 0 -6 -5 -8 -12 -3 -18 10 -38 13 -38 4 0 -6 -28 -6 -95 3
-11 1 -28 -2 -37 -6 -12 -6 -18 -5 -18 2 0 7 -6 8 -19 0 -13 -6 -22 -7 -26 0
-4 6 -15 6 -30 0 -24 -9 -29 -6 -26 14 1 5 -5 3 -14 -4 -19 -16 -65 -20 -65
-6 0 6 -5 5 -12 -2 -7 -7 -17 -8 -30 -1 -13 7 -18 6 -18 -3 0 -8 -3 -9 -8 -3
-10 14 -32 17 -32 4 0 -8 -4 -9 -13 0 -8 6 -17 8 -20 4 -10 -9 -67 -9 -67 0 0
5 -6 5 -12 1 -18 -11 -48 -12 -54 -2 -3 4 -10 6 -15 2 -16 -10 -79 -10 -79 0
0 4 -8 2 -17 -5 -15 -12 -16 -12 -10 4 6 16 5 16 -20 0 -15 -10 -24 -12 -20
-5 10 15 6 15 -27 2 -19 -7 -26 -6 -26 2 0 9 -3 9 -12 0 -7 -7 -17 -8 -30 -1
-13 7 -18 6 -18 -3 0 -8 -3 -9 -8 -3 -10 14 -32 17 -32 4 0 -6 -5 -7 -12 -2
-19 11 -38 12 -38 2 0 -6 -5 -7 -10 -4 -6 4 -7 12 -3 18 3 7 -3 4 -14 -6 -11
-9 -22 -15 -25 -12 -10 10 -62 12 -80 3 -12 -6 -18 -5 -18 2 0 7 -6 8 -19 0
-13 -6 -22 -7 -26 0 -4 6 -15 6 -30 0 -24 -9 -29 -6 -26 14 1 5 -5 3 -14 -4
-19 -16 -65 -20 -65 -6 0 6 -5 5 -12 -2 -7 -7 -17 -8 -30 -1 -13 7 -18 6 -18
-3 0 -8 -3 -9 -8 -3 -10 14 -32 17 -32 4 0 -8 -4 -9 -13 0 -8 6 -17 8 -20 4
-10 -9 -67 -9 -67 0 0 5 -6 5 -12 1 -18 -11 -48 -12 -54 -2 -3 4 -10 6 -15 2
-16 -10 -79 -10 -79 0 0 4 -8 2 -17 -5 -15 -12 -16 -12 -10 4 6 16 5 16 -20 0
-15 -10 -24 -12 -20 -5 10 15 6 15 -27 2 -19 -7 -26 -6 -26 2 0 9 -3 9 -12 0
-7 -7 -17 -8 -30 -1 -13 7 -18 6 -18 -3 0 -8 -3 -9 -8 -3 -10 14 -32 17 -32 4
0 -6 -5 -7 -12 -2 -19 11 -38 12 -38 2 0 -6 -5 -7 -10 -4 -6 4 -7 12 -3 18 3
7 -3 4 -14 -6 -11 -9 -22 -15 -25 -12 -10 10 -62 12 -80 3 -12 -6 -18 -5 -18
2 0 7 -6 8 -19 0 -13 -6 -22 -7 -26 0 -4 6 -15 6 -30 0 -24 -9 -29 -6 -26 14
1 5 -5 3 -14 -4 -19 -16 -65 -20 -65 -6 0 6 -5 5 -12 -2 -7 -7 -17 -8 -30 -1
-13 7 -18 6 -18 -3 0 -8 -3 -9 -8 -3 -10 14 -32 17 -32 4 0 -8 -4 -9 -13 0 -8
6 -17 8 -20 4 -10 -9 -67 -9 -67 0 0 5 -6 5 -12 1 -18 -11 -48 -12 -54 -2 -3
4 -10 6 -15 2 -16 -10 -79 -10 -79 0 0 4 -8 2 -17 -5 -15 -12 -16 -12 -10 4 6
16 5 16 -20 0 -15 -10 -24 -12 -20 -5 10 15 6 15 -27 2 -19 -7 -26 -6 -26 2 0
9 -3 9 -12 0 -7 -7 -17 -8 -30 -1 -13 7 -18 6 -18 -3 0 -8 -3 -9 -8 -3 -10 14
-32 17 -32 4 0 -6 -5 -7 -12 -2 -19 11 -38 12 -38 2 0 -6 -5 -7 -10 -4 -6 4
-7 12 -3 18 3 7 -3 4 -14 -6 -11 -9 -22 -15 -25 -12 -10 10 -62 12 -80 3 -12
-6 -18 -5 -18 2 0 7 -6 8 -19 0 -13 -6 -22 -7 -26 0 -4 6 -15 6 -30 0 -24 -9
-29 -6 -26 14 1 5 -5 3 -14 -4 -19 -16 -65 -20 -65 -6 0 6 -5 5 -12 -2 -7 -7
-17 -8 -30 -1 -13 7 -18 6 -18 -3 0 -8 -3 -9 -8 -3 -10 14 -32 17 -32 4 0 -8
-4 -9 -13 0 -8 6 -17 8 -21 4 -10 -11 -60 -9 -69 2 -6 6 -10 5 -14 -3 -4 -10
-8 -10 -19 -1 -8 6 -14 8 -14 3 0 -5 -13 -9 -30 -9 -16 0 -30 4 -30 8 0 5 -5
5 -10 2 -6 -4 -18 -1 -26 6 -12 10 -13 9 -9 -3z m505 -567 c0 11 2 11 10 -1 8
-12 10 -12 10 -1 0 10 3 11 14 2 11 -9 16 -9 21 0 6 8 10 7 16 -2 7 -12 9 -12
9 0 0 10 3 11 14 2 10 -9 16 -9 21 -1 5 8 11 8 19 1 7 -6 15 -8 19 -5 10 11
67 10 67 0 0 -6 4 -5 9 2 4 8 12 14 16 14 4 0 12 -6 16 -14 5 -7 9 -8 9 -3 0
14 140 14 140 0 0 -7 3 -7 8 0 4 6 16 11 27 11 11 0 23 -5 27 -11 5 -6 8 -5 8
4 0 10 3 11 13 2 8 -6 17 -8 21 -4 11 12 56 11 56 -1 0 -6 4 -5 9 3 6 9 10 10
16 2 5 -9 10 -9 21 0 11 9 14 8 14 -2 0 -12 2 -12 9 -1 4 8 12 14 16 14 4 0
12 -6 16 -14 7 -11 9 -11 9 1 0 10 3 11 14 2 10 -9 16 -9 21 -1 5 8 11 8 19 1
7 -6 16 -8 20 -4 11 12 96 10 96 -1 0 -6 4 -5 9 2 4 8 12 14 16 14 4 0 12 -6
16 -14 7 -11 9 -11 9 1 0 10 3 11 14 2 9 -8 16 -8 20 -2 7 10 37 7 58 -5 7 -4
8 -3 4 4 -4 7 -3 12 3 12 5 0 13 -5 16 -10 5 -8 11 -8 20 0 9 8 15 8 20 0 3
-6 12 -7 18 -3 19 12 97 10 97 -1 0 -6 4 -5 9 2 4 8 12 14 16 14 4 0 12 -6 16
-14 7 -11 9 -11 9 1 0 10 3 11 13 2 8 -6 17 -8 21 -4 11 12 65 10 58 -2 -3 -5
1 -4 10 3 12 9 18 10 23 2 5 -8 11 -8 21 1 11 9 14 8 14 -2 0 -12 2 -12 9 -1
4 8 12 14 16 14 4 0 12 -6 16 -14 5 -7 9 -8 9 -2 0 13 53 14 62 0 5 -8 8 -7 8
1 0 12 17 12 37 0 6 -4 14 -4 17 1 6 10 86 9 103 -1 6 -4 14 -4 17 1 6 10 66
9 84 -1 6 -5 12 -5 12 0 0 4 11 8 25 8 14 0 25 -4 25 -10 0 -5 4 -4 9 3 4 8
12 14 16 14 4 0 12 -6 16 -14 5 -7 9 -8 9 -3 0 12 104 14 116 2 4 -4 13 -2 21
4 10 9 13 8 13 -2 0 -12 2 -12 9 -1 4 8 12 14 16 14 4 0 12 -6 16 -14 5 -7 9
-8 9 -2 0 13 53 14 62 0 5 -8 8 -7 8 1 0 12 24 12 36 0 4 -3 12 -3 18 1 18 11
265 9 259 -3 -3 -5 0 -4 7 2 11 10 17 10 29 0 9 -7 12 -8 8 -1 -8 14 35 13 45
-1 5 -7 8 -6 8 1 0 11 65 13 76 1 11 -10 26 -9 20 2 -8 13 15 8 39 -8 l20 -13
-20 7 c-16 5 -18 4 -7 -6 16 -17 16 -79 0 -79 -10 0 -10 -2 -1 -8 19 -12 22
-193 3 -210 -8 -8 -10 -11 -4 -8 7 3 14 -5 17 -20 3 -19 1 -24 -11 -19 -12 4
-12 3 -3 -9 7 -9 11 -53 10 -126 0 -61 2 -114 5 -117 3 -3 -2 -12 -12 -20 -9
-8 -12 -12 -6 -9 7 3 14 -5 17 -20 3 -20 1 -24 -12 -19 -13 5 -14 4 -3 -6 7
-8 12 -39 12 -77 0 -48 -3 -61 -12 -56 -10 6 -10 4 -2 -7 12 -15 24 -79 15
-79 -8 0 -5 -136 3 -149 4 -5 2 -12 -2 -15 -5 -3 -6 -26 -2 -51 6 -40 5 -45
-9 -40 -13 5 -14 4 -3 -6 7 -8 12 -39 12 -77 0 -48 -3 -61 -12 -56 -10 6 -10
4 -2 -7 12 -15 24 -79 15 -79 -8 0 -5 -136 3 -149 4 -5 2 -12 -2 -15 -5 -3 -6
-26 -2 -51 6 -38 5 -45 -8 -40 -12 4 -12 3 -3 -9 8 -9 12 -46 10 -104 -1 -49
2 -95 6 -102 6 -10 3 -12 -10 -6 -14 5 -15 3 -8 -6 6 -7 13 -32 15 -56 3 -35
1 -41 -12 -37 -12 5 -13 4 -2 -6 7 -8 12 -39 12 -77 0 -48 -3 -61 -12 -56 -10
6 -10 4 -2 -7 12 -15 24 -79 15 -79 -8 0 -5 -136 3 -149 4 -5 2 -12 -2 -15 -5
-3 -6 -26 -2 -51 6 -40 5 -45 -9 -40 -13 5 -14 4 -3 -6 8 -9 12 -46 12 -112 0
-76 -3 -97 -12 -91 -10 6 -10 4 0 -7 6 -7 12 -23 12 -35 0 -17 -5 -22 -20 -19
-11 2 -20 1 -20 -3 0 -4 -50 -7 -110 -7 -61 0 -110 4 -110 9 0 5 -7 3 -15 -4
-12 -10 -15 -10 -15 0 0 9 -3 10 -13 1 -10 -8 -17 -7 -25 1 -9 9 -12 9 -12 -2
0 -11 -3 -11 -12 -2 -8 8 -15 9 -25 1 -7 -7 -13 -7 -13 -2 0 5 -7 10 -15 10
-8 0 -15 -5 -15 -10 0 -5 -7 -4 -15 3 -12 10 -15 10 -15 0 0 -10 -3 -10 -15 0
-8 7 -15 9 -15 4 0 -5 -16 -9 -35 -9 -19 0 -35 4 -35 9 0 5 -7 3 -15 -4 -12
-10 -15 -10 -15 0 0 10 -3 10 -15 0 -11 -9 -15 -9 -15 -1 0 7 -5 9 -12 5 -18
-11 -48 -12 -48 -2 0 5 -5 6 -12 2 -15 -10 -61 -10 -76 0 -7 4 -12 3 -12 -2 0
-5 -11 -8 -25 -7 -14 2 -23 -2 -22 -8 1 -7 -6 -11 -15 -11 -11 1 -14 -4 -10
-14 4 -11 1 -14 -12 -9 -11 4 -15 3 -11 -4 8 -12 -34 -51 -46 -43 -5 3 -6 -3
-2 -12 5 -13 3 -16 -10 -11 -9 3 -16 3 -16 -1 4 -22 -3 -33 -15 -29 -10 4 -13
1 -9 -9 5 -13 -8 -19 -30 -15 -5 1 -6 -3 -2 -8 8 -14 -33 -53 -47 -45 -7 4 -8
3 -4 -5 8 -12 -146 -171 -166 -171 -6 0 -9 -3 -5 -6 3 -4 -22 -34 -57 -68
-100 -97 -92 -93 -125 -58 -16 17 -33 27 -37 24 -4 -4 -4 -2 0 5 4 7 -2 17
-14 23 -11 6 -18 15 -15 21 4 5 3 8 -2 7 -11 -4 -153 136 -153 150 0 7 -6 11
-12 10 -7 -2 -12 3 -10 10 1 6 -2 11 -6 10 -11 -4 -112 97 -112 111 0 6 -4 10
-9 9 -4 -2 -43 32 -85 74 -66 66 -81 77 -106 74 -17 -2 -27 1 -24 6 4 6 -3 5
-15 -1 -16 -9 -21 -9 -21 1 0 9 -3 9 -12 0 -8 -8 -15 -9 -25 -1 -10 9 -13 8
-13 -1 0 -10 -3 -10 -15 0 -8 7 -15 9 -15 4 0 -11 -151 -11 -168 0 -7 4 -12 4
-12 -1 0 -9 -84 -8 -99 2 -6 3 -11 1 -11 -6 0 -8 -3 -9 -13 0 -8 6 -17 8 -20
4 -10 -10 -57 -10 -57 0 0 4 -5 5 -11 1 -14 -8 -109 -11 -109 -3 0 3 -7 6 -15
6 -8 0 -15 -3 -15 -6 0 -8 -58 -6 -67 2 -3 4 -13 1 -21 -6 -13 -9 -14 -9 -8 1
4 6 3 12 -2 12 -15 0 -9 33 8 48 8 8 10 11 3 8 -17 -9 -28 15 -12 25 8 5 9 9
3 9 -12 0 -12 49 0 69 4 6 2 11 -5 11 -8 0 -8 4 1 15 10 12 10 15 0 15 -9 0
-9 4 1 17 12 15 12 16 -1 8 -13 -8 -13 -7 -1 8 10 13 10 17 1 17 -10 0 -10 3
0 15 10 12 10 15 -1 16 -12 0 -12 1 0 6 11 4 11 7 0 13 -10 7 -10 12 0 23 9
11 9 17 0 22 -8 6 -7 10 2 16 8 5 9 9 4 9 -6 0 -11 9 -11 19 0 11 5 17 11 13
5 -3 4 2 -4 11 -11 14 -11 17 0 17 11 0 11 2 -1 10 -11 7 -11 10 -2 10 8 0 10
5 6 12 -12 19 -11 98 0 98 7 0 8 3 1 8 -12 8 -13 131 -2 150 5 7 3 12 -4 12
-8 0 -8 4 1 15 10 12 10 15 -1 16 -12 0 -12 1 0 6 11 4 11 7 0 13 -10 7 -10
12 0 23 9 11 9 17 0 22 -8 6 -7 10 2 16 8 5 9 9 4 9 -6 0 -11 9 -11 19 0 11 5
17 11 13 5 -3 4 2 -4 11 -11 14 -11 17 0 17 11 0 11 2 -1 10 -11 7 -11 10 -2
10 8 0 10 5 6 12 -12 19 -11 98 0 98 7 0 8 3 1 8 -12 8 -13 131 -2 150 5 7 3
12 -4 12 -8 0 -8 4 1 15 10 12 10 15 -1 16 -12 0 -12 1 0 6 11 4 11 7 0 13
-10 7 -10 12 0 23 9 11 9 17 0 22 -8 6 -7 10 2 16 8 5 9 9 4 9 -6 0 -11 9 -11
19 0 11 5 17 11 13 5 -3 4 2 -4 11 -11 14 -11 17 0 17 11 0 11 2 -1 10 -11 7
-11 10 -2 10 8 0 10 5 6 12 -12 19 -11 98 0 98 7 0 8 3 1 8 -12 8 -13 131 -2
150 5 7 3 12 -4 12 -8 0 -8 4 1 15 10 12 10 15 -1 16 -12 0 -12 1 0 6 11 4 11
7 0 13 -10 7 -10 12 0 23 9 11 9 17 0 22 -8 6 -7 10 2 16 8 5 9 9 4 9 -6 0
-11 9 -11 19 0 11 5 17 11 13 5 -3 4 2 -4 11 -11 14 -11 17 0 17 11 0 11 2 -1
10 -11 7 -11 10 -2 10 8 0 10 5 6 12 -12 19 -11 98 0 98 7 0 8 3 1 8 -12 8
-13 131 -2 150 5 7 3 12 -4 12 -8 0 -8 4 1 15 10 12 10 15 -1 15 -12 0 -12 2
0 9 11 7 11 9 0 13 -12 4 -12 7 0 21 10 13 10 17 1 17 -9 0 -9 4 1 17 12 14
12 15 1 9 -11 -7 -12 -4 -3 13 9 16 9 21 0 21 -8 0 -7 5 2 17 12 15 12 16 -1
8 -13 -8 -13 -7 -1 8 10 13 10 17 1 17 -10 0 -10 3 0 15 10 12 10 15 -1 15
-10 0 -10 3 -1 12 8 8 9 15 1 25 -7 7 -7 13 -2 13 5 0 10 7 10 15 0 8 -5 15
-10 15 -5 0 -3 8 4 17 12 15 12 16 -1 8 -13 -8 -13 -7 -1 8 10 13 10 17 1 17
-10 0 -10 3 0 15 10 12 10 15 0 15 -9 0 -9 4 1 17 8 10 9 14 2 10 -12 -8 -11
22 2 43 3 6 0 10 -7 11 -10 0 -10 2 0 6 6 2 9 10 5 16 -19 30 0 65 24 45 10
-8 13 -7 13 3z m530 -3281 c0 -5 -2 -10 -4 -10 -3 0 -8 5 -11 10 -3 6 -1 10 4
10 6 0 11 -4 11 -10z"/>
<path d="M2146 4282 c-3 -5 1 -9 9 -9 8 0 12 4 9 9 -3 4 -7 8 -9 8 -2 0 -6 -4
-9 -8z"/>
<path d="M2466 4282 c-3 -5 1 -9 9 -9 8 0 12 4 9 9 -3 4 -7 8 -9 8 -2 0 -6 -4
-9 -8z"/>
<path d="M1755 1631 c-3 -5 -2 -12 3 -15 5 -3 9 1 9 9 0 17 -3 19 -12 6z"/>
<path d="M3716 1627 c3 -10 9 -15 12 -12 3 3 0 11 -7 18 -10 9 -11 8 -5 -6z"/>
<path d="M2535 1080 c3 -5 8 -10 11 -10 2 0 4 5 4 10 0 6 -5 10 -11 10 -5 0
-7 -4 -4 -10z"/>
<path d="M4509 4403 c-13 -16 -12 -17 4 -4 9 7 17 15 17 17 0 8 -8 3 -21 -13z"/>
</g>
</svg>
